<?xml version="1.0" standalone="no"?><!DOCTYPE svg PUBLIC "-//W3C//DTD SVG 1.1//EN" "http://www.w3.org/Graphics/SVG/1.1/DTD/svg11.dtd"><svg t="1683785321224" class="icon" viewBox="0 0 1024 1024" version="1.1" xmlns="http://www.w3.org/2000/svg" p-id="2816" xmlns:xlink="http://www.w3.org/1999/xlink" width="200" height="200"><path d="M174.2 156.2h54.1V436h-54.1zM752.688 269.016v54.1h-490.8v-54.1z" fill="#FEDFE1" p-id="2817"></path><path d="M228.3 212.2h54.1V380h-54.1z m-55 558.4h56v56h-56z m-109.1-56h56v56h-56z m0-110.7h56v56h-56z m0-112h56v56h-56z m558.2 0h56v56h-56z m0 112h56v56h-56z m-55.9-56h56v56h-56z m111.9 0h56v56h-56z m-393-0.6h167.7v56H285.4z" fill="#FEDFE1" p-id="2818"></path><path d="M397.193 491.455v167.7h-56v-167.7zM229.3 827.6h112.2v56H229.3zM120.2 380h54.1v390.6h-54.1zM847.73 436.004h-54.1v-279.8h54.1zM793.58 379.96h-54.1v-167.8h54.1zM848.63 826.472h-56v-56h56zM957.71 770.56h-56v-56h56zM957.71 659.77h-56v-56h56zM957.71 547.858h-56v-56h56zM792.672 883.532h-112.2v-56h112.2z" fill="#FEDFE1" p-id="2819"></path><path d="M901.78 770.548h-54.1v-390.6h54.1z" fill="#FEDFE1" p-id="2820"></path></svg>