<svg class="icon" viewBox="0 0 1024 1024" xmlns="http://www.w3.org/2000/svg" width="200" height="200"><path d="M174.2 156.2h54.1V436h-54.1zm578.488 112.816v54.1h-490.8v-54.1z" fill="#FEDFE1"/><path d="M228.3 212.2h54.1V380h-54.1zm-55 558.4h56v56h-56zm-109.1-56h56v56h-56zm0-110.7h56v56h-56zm0-112h56v56h-56zm558.2 0h56v56h-56zm0 112h56v56h-56zm-55.9-56h56v56h-56zm111.9 0h56v56h-56zm-393-.6h167.7v56H285.4z" fill="#FEDFE1"/><path d="M397.193 491.455v167.7h-56v-167.7zM229.3 827.6h112.2v56H229.3zM120.2 380h54.1v390.6h-54.1zm727.53 56.004h-54.1v-279.8h54.1zm-54.15-56.044h-54.1v-167.8h54.1zm55.05 446.512h-56v-56h56zm109.08-55.912h-56v-56h56zm0-110.79h-56v-56h56zm0-111.912h-56v-56h56zM792.672 883.532h-112.2v-56h112.2z" fill="#FEDFE1"/><path d="M901.78 770.548h-54.1v-390.6h54.1z" fill="#FEDFE1"/></svg>